<?xml version="1.0" encoding="utf-8"?>
<!-- Generator: Adobe Illustrator 25.0.1, SVG Export Plug-In . SVG Version: 6.00 Build 0)  -->
<svg version="1.1" id="bfc59778-adb9-4ded-81d5-12977ec092f3"
	 xmlns="http://www.w3.org/2000/svg" xmlns:xlink="http://www.w3.org/1999/xlink" x="0px" y="0px" viewBox="0 0 996.5 828.2"
	 style="enable-background:new 0 0 996.5 828.2;" xml:space="preserve">
<style type="text/css">
	.st0{fill:#FFFFFF;stroke:#112233;stroke-miterlimit:10;enable-background:new    ;}
	.st1{fill:#112233;stroke:#FFFFFF;stroke-miterlimit:10;enable-background:new    ;}
	.st2{opacity:0.1;fill:#112233;enable-background:new    ;}
	.st3{fill:#D48A9B;}
	.st4{fill:#112233;stroke:#FFFFFF;stroke-miterlimit:10;}
	.st5{fill:#112233;}
	.st6{opacity:0.1;enable-background:new    ;}
	.st7{opacity:0.1;}
	.st8{fill:#FFFFFF;stroke:#112233;stroke-miterlimit:10;}
	.st9{fill:#D9D6DF;}
	.st10{opacity:0.1;fill:#FFFFFF;enable-background:new    ;}
	.st11{fill:url(#SVGID_1_);}
	.st12{opacity:0.1;fill:#112233;stroke:#FFFFFF;stroke-miterlimit:10;enable-background:new    ;}
	.st13{fill:#444053;}
	.st14{fill:#FFFFFF;}
	.st15{fill:#112233;stroke:#FFFFFF;stroke-width:0.5;stroke-miterlimit:10;}
	.st16{fill:#D1D9EC;}
	.st17{fill:none;}
	.st18{fill:#746D83;}
	.st19{fill:#DFE6F5;}
	.st20{fill:#D4DFEC;}
</style>
<path class="st0" d="M700.5,352.4h-38.4v48.4h35.6c0.1,0.5,0.2,1,0.3,1.5h-35.9v39.1l0.2-0.1c1-0.4,2-0.8,3-1.2l0.6-0.3
	c1-0.4,2-0.9,3-1.4c0.4-0.2,0.7-0.3,1.1-0.5c5.5-2.8,10.6-6.5,15.1-10.9c0.1-0.1,0.3-0.2,0.4-0.4c0.6-0.6,1.2-1.2,1.8-1.9l0.6-0.7
	c0.7-0.8,1.4-1.6,2-2.4l0.3-0.4c2.6-3.3,4.8-7,6.5-10.9c0.1-0.1,0.1-0.2,0.2-0.4c0.5-1.2,1-2.5,1.4-3.7c0.2-0.5,0.3-1.1,0.5-1.6
	c0.1-0.2,0.1-0.3,0.1-0.5c2.1-7.8,2.4-15.8,2.4-23.8c0-0.9,0-1.9,0-2.8c0-3.2,0-6.5-0.1-9.8c0-0.8,0-1.7-0.1-2.5
	c-0.1-2.2-0.1-4.3-0.2-6.5c0-0.6-0.1-1.2-0.1-1.8c0-0.3,0-0.7-0.1-1C700.6,354.9,700.5,353.7,700.5,352.4z"/>
<path class="st0" d="M662.1,298.5h21.1c-3.5-5-7.2-9.8-11.2-14.3c-3.1-3.6-6.4-7-9.9-10.4L662.1,298.5z"/>
<path class="st0" d="M662.1,300v50.9h38.3c0-0.1,0-0.3,0-0.4c0-0.4-0.1-0.8-0.1-1.2c0-0.4-0.1-0.9-0.1-1.4s-0.1-1-0.2-1.5
	c-0.1-0.5-0.1-1-0.2-1.5c-0.1-0.5-0.1-1-0.2-1.5c-0.1-0.5-0.1-1-0.2-1.5c-0.1-0.4-0.1-0.8-0.2-1.3c-0.1-0.6-0.2-1.2-0.3-1.8
	c0-0.1,0-0.2,0-0.3c-0.7-4.3-1.6-8.6-2.8-12.8c-1.3-4.5-2.8-8.8-4.7-13c-2.1-4.4-4.4-8.7-7.1-12.7L662.1,300z"/>
<path class="st0" d="M570.9,352.4v48.4h82v-48.4H570.9z M570.9,402.4v32.8c9.5-3.2,20.5-1.9,30.4,0.7c7.7,2,15.1,4.8,22.8,6.8
	c3.4,0.9,6.9,1.6,10.4,2l0.9,0.1c0.4,0,0.8,0.1,1.3,0.1l1.3,0.1h0.1h0.6c0.1,0,0.1,0,0.2,0h0.7l0,0c0.3,0,0.6,0,1,0h0.4
	c0.3,0,0.6,0,1,0h0.7h0.6c0.2,0,0.5,0,0.7,0c0.4,0,0.8,0,1.2-0.1l0,0h0.7l0.9-0.1c0.6-0.1,1.3-0.1,1.9-0.2c0.3,0,0.5-0.1,0.8-0.1
	h0.4c0.6-0.1,1.3-0.2,1.9-0.3c0.5-0.1,0.9-0.2,1.4-0.3v-41.6h-82.3V402.4z M631.9,298.5v1.5h-61v51h82v-51h-4.1v-1.5h4.1v-32.9
	c-15.9-13.4-34.6-23.9-55.4-28.7c-8.7-2-17.7-3-26.6-2.9v64.5H631.9z M444.4,298.2l0.3,0.3h117v-64c-20.8,1.8-41.1,9.1-57.5,21.2
	c-7.9,5.8-14.9,12.7-23.8,17.1c-4.6,2.4-9.7,3.8-14.9,4L444.4,298.2z M443.6,271.9v14.5l11.3-11.5
	C450.7,273.4,447.4,272.4,443.6,271.9L443.6,271.9z M443.3,454.3h0.4v31.8c4.3-0.3,8.5-0.8,12.8-1.4c18.9-2.5,37.5-7.5,55.2-14.9
	l0,0c1.9-0.8,3.8-1.6,5.7-2.5c1.2-0.6,2.5-1.1,3.7-1.7c1.9-0.9,3.7-1.8,5.5-2.7c8.1-4.1,15.9-8.8,23.3-14.1c0.5-0.3,0.9-0.7,1.4-1
	c0.9-0.7,1.8-1.3,2.8-2c0.5-0.3,0.9-0.7,1.4-1l0.9-0.7c0.9-0.7,1.9-1.5,2.8-2.2l0,0c0.9-0.7,1.8-1.3,2.6-1.9v-37.6h-94
	c0.1-0.2,0.1-0.4,0.2-0.7c-0.1,0.2-0.1,0.4-0.2,0.7h-24.1v51.9L443.3,454.3z M443.6,300v50.9h118.1V300H443.6z M443.6,352.4v48.5
	h118.1v-48.4L443.6,352.4z M420,273.4l14.4,14.7v-16.2C429.6,272.2,424.8,272.7,420,273.4z M319.5,352.4v48.4h114.9v-48.4H319.5z
	 M347.3,472.1c17.4,6.9,35.6,11.4,54.2,13.4h0.1c3.5,0.4,7,0.7,10.5,0.9h0.1l0,0c7.4,0.4,14.8,0.5,22.2,0.2v-84.2H319.5l0.4,55.8
	 M287.7,400.9h22.7v-48.4h-9c-0.9,1.7-1.8,3.4-2.7,5.2c-0.5,0.9-0.9,1.9-1.3,2.8C291.5,373.1,287.7,387.2,287.7,400.9z M287.7,402.4
	c0.2,9.8,2.3,19.5,7,28.4c3.9,7.4,9.3,13.9,15.7,19.6v-48H287.7z M302.2,350.9h8.1v-12.6C307.4,342.4,304.7,346.6,302.2,350.9
	L302.2,350.9z M353.1,298.5h78.6l0.3-0.3l-0.4-0.4l0,0l-22.1-22.4c-6.6,1.4-13,3.2-19.4,5.4c-0.6,0.2-1.2,0.4-1.8,0.6
	C376,285.7,364.2,291.5,353.1,298.5z M319.5,326.9v24h100.8l0,0l0,0h14.1v-49.6l-1.6-1.4h-82C339.3,307.6,328.8,316.6,319.5,326.9z"
	/>
<path class="st0" d="M662.1,325.7v25.2h38.3c0-0.1,0-0.3,0-0.4c0-0.4-0.1-0.8-0.1-1.2c0-0.4-0.1-0.9-0.1-1.4c-0.1-0.5-0.1-1-0.2-1.5
	c-0.1-0.5-0.1-1-0.2-1.5c-0.1-0.5-0.1-1-0.2-1.5c-0.1-0.5-0.1-1-0.2-1.5c-0.1-0.4-0.1-0.8-0.2-1.3c-0.1-0.6-0.2-1.2-0.3-1.8
	c0-0.1,0-0.2,0-0.3c-0.7-4.3-1.6-8.6-2.8-12.8L662.1,325.7z"/>
<path class="st0" d="M700.5,352.4h-38.4v48.4h35.6c0.1,0.5,0.2,1,0.3,1.5h-35.9v39.1l0.2-0.1c1-0.4,2-0.8,3-1.2l0.6-0.3
	c1-0.4,2-0.9,3-1.4c0.4-0.2,0.7-0.3,1.1-0.5c5.5-2.8,10.6-6.5,15.1-10.9c0.1-0.1,0.3-0.2,0.4-0.4c0.6-0.6,1.2-1.2,1.8-1.9l0.6-0.7
	c0.7-0.8,1.4-1.6,2-2.4l0.3-0.4c2.6-3.3,4.8-7,6.5-10.9c0.1-0.1,0.1-0.2,0.2-0.4c0.5-1.2,1-2.5,1.4-3.7c0.2-0.5,0.3-1.1,0.5-1.6
	c0.1-0.2,0.1-0.3,0.1-0.5c2.1-7.8,2.4-15.8,2.4-23.8c0-0.9,0-1.9,0-2.8c0-3.2,0-6.5-0.1-9.8c0-0.8,0-1.7-0.1-2.5
	c-0.1-2.2-0.1-4.3-0.2-6.5c0-0.6-0.1-1.2-0.1-1.8c0-0.3,0-0.7-0.1-1C700.6,354.9,700.5,353.7,700.5,352.4z"/>
<polygon class="st1" points="624,307.3 624,350.9 652.9,350.9 652.9,307.3 648.8,307.3 648.8,292.5 631.9,292.5 631.9,307.3 "/>
<rect x="624" y="352.4" class="st1" width="28.9" height="48.4"/>
<path class="st1" d="M652.9,402.4H624v40.3c3.4,0.9,6.9,1.6,10.4,2l0.9,0.1c0.4,0,0.8,0.1,1.3,0.1l1.3,0.1h0.1c0.2,0,0.4,0,0.6,0
	h0.2c0.2,0,0.5,0,0.7,0l0,0c0.3,0,0.6,0,1,0h0.4c0.3,0,0.6,0,1,0h0.7h0.6h0.7c0.4,0,0.8,0,1.2-0.1l0,0h0.7l0.9-0.1
	c0.6-0.1,1.3-0.1,1.9-0.2l0.8-0.1h0.4c0.6-0.1,1.3-0.2,1.9-0.3c0.5-0.1,0.9-0.2,1.4-0.3L652.9,402.4z"/>
<rect x="443.6" y="347.4" class="st2" width="12.8" height="3.5"/>
<rect x="443.6" y="352.4" class="st2" width="12.8" height="10.3"/>
<rect x="443.6" y="379.1" class="st2" width="12.8" height="15.3"/>
<rect x="443.6" y="410.8" class="st2" width="12.8" height="15.3"/>
<rect x="507.1" y="399.8" class="st2" width="54.6" height="1.1"/>
<rect x="507.1" y="402.4" class="st2" width="54.6" height="4.3"/>
<rect x="507.1" y="420.8" class="st2" width="54.6" height="6.9"/>
<path class="st2" d="M507.1,441.9v6.9h42.7c1.9-1.3,3.7-2.7,5.5-4c1.3-1,2.5-1.9,3.8-2.9H507.1z"/>
<rect x="401.5" y="357.1" class="st2" width="10.8" height="10"/>
<rect x="634.4" y="310.7" class="st1" width="10.8" height="10"/>
<rect x="634.4" y="333.9" class="st1" width="10.8" height="10"/>
<rect x="634.4" y="357" class="st1" width="10.8" height="10"/>
<rect x="634.4" y="380.1" class="st1" width="10.8" height="10"/>
<rect x="634.4" y="403.3" class="st1" width="10.8" height="10"/>
<rect x="634.4" y="426.4" class="st1" width="10.8" height="10"/>
<rect x="401.5" y="381.7" class="st2" width="10.8" height="10"/>
<rect x="401.5" y="406.3" class="st2" width="10.8" height="10"/>
<rect x="360.4" y="406.3" class="st2" width="10.8" height="10"/>
<rect x="401.5" y="430.8" class="st2" width="10.8" height="10"/>
<rect x="360.4" y="430.8" class="st2" width="10.8" height="10"/>
<rect x="401.5" y="455.4" class="st2" width="10.8" height="10"/>
<rect x="360.4" y="455.4" class="st2" width="10.8" height="10"/>
<polygon class="st2" points="412.2,486.4 412.2,480 401.5,480 401.5,485.5 "/>
<path class="st0" d="M662.1,338.5v5.7h36.8v-5.7H662.1z M695.2,338.8h3v5h-3V338.8z M691.6,338.8h3v5h-3V338.8z M687.9,338.8h3v5h-3
	V338.8z M684.2,338.8h3v5h-3V338.8z M680.6,338.8h3v5h-3V338.8z M676.9,338.8h3v5h-3V338.8z M673.2,338.8h3v5h-3V338.8z
	 M669.6,338.8h3v5h-3V338.8z M665.9,338.8h3v5h-3V338.8z M662.3,338.8h3v5h-3V338.8z"/>
<path class="st0" d="M662.1,355.1v5.7h36.8v-5.7H662.1z M695.2,355.4h3v5h-3V355.4z M691.6,355.4h3v5h-3V355.4z M687.9,355.4h3v5h-3
	V355.4z M684.2,355.4h3v5h-3V355.4z M680.6,355.4h3v5h-3V355.4z M676.9,355.4h3v5h-3V355.4z M673.2,355.4h3v5h-3V355.4z
	 M669.6,355.4h3v5h-3V355.4z M665.9,355.4h3v5h-3V355.4z M662.3,355.4h3v5h-3V355.4z"/>
<path class="st0" d="M662.1,371.7v5.7h36.8v-5.7H662.1z M695.2,372h3v5h-3V372z M691.6,372h3v5h-3V372z M687.9,372h3v5h-3V372z
	 M684.2,372h3v5h-3V372z M680.6,372h3v5h-3V372z M676.9,372h3v5h-3V372z M673.2,372h3v5h-3V372z M669.6,372h3v5h-3V372z M665.9,372
	h3v5h-3V372z M662.3,372h3v5h-3V372z"/>
<path class="st0" d="M662.1,388.2v5.7h36.8v-5.7H662.1z M695.2,388.6h3v5h-3V388.6z M691.6,388.6h3v5h-3V388.6z M687.9,388.6h3v5h-3
	V388.6z M684.2,388.6h3v5h-3V388.6z M680.6,388.6h3v5h-3V388.6z M676.9,388.6h3v5h-3V388.6z M673.2,388.6h3v5h-3V388.6z
	 M669.6,388.6h3v5h-3V388.6z M665.9,388.6h3v5h-3V388.6z M662.3,388.6h3v5h-3V388.6z"/>
<path class="st0" d="M662.1,404.8v5.7h34.6c0.1-0.1,0.1-0.2,0.1-0.4h-1.6v-5h3v1.2c0.2-0.5,0.3-1.1,0.5-1.6L662.1,404.8L662.1,404.8
	z M691.6,405.2h3v5h-3V405.2z M687.9,405.2h3v5h-3V405.2z M684.2,405.2h3v5h-3V405.2z M680.6,405.2h3v5h-3V405.2z M676.9,405.2h3v5
	h-3V405.2z M673.2,405.2h3v5h-3V405.2z M669.6,405.2h3v5h-3V405.2z M665.9,405.2h3v5h-3V405.2z M662.3,405.2h3v5h-3V405.2z"/>
<path class="st0" d="M662.1,421.4v5.7h23c0.1-0.1,0.3-0.2,0.4-0.4h-1.2v-5h3v3.1l0.6-0.7v-2.4h2c0.1-0.1,0.2-0.2,0.3-0.4
	L662.1,421.4z M680.6,421.8h3v5h-3V421.8z M676.9,421.8h3v5h-3V421.8z M673.2,421.8h3v5h-3V421.8z M669.6,421.8h3v5h-3V421.8z
	 M665.9,421.8h3v5h-3V421.8z M662.3,421.8h3v5h-3V421.8z"/>
<path class="st0" d="M662.1,438v3.4c0.1,0,0.1,0,0.2-0.1v-3h3v1.9l0.6-0.3v-1.6h3v0.2c0.4-0.2,0.7-0.3,1.1-0.5H662.1z"/>
<path class="st2" d="M420.3,351L420.3,351L420.3,351L420.3,351z M443.2,454.3h0.4l0,0H443.2z M467.7,402.4L467.7,402.4
	c0.1-0.2,0.1-0.4,0.2-0.7C467.8,401.9,467.8,402.2,467.7,402.4z M420.3,351L420.3,351L420.3,351L420.3,351z M631.9,298.5v1.5h16.9
	v-1.5H631.9z M443.2,454.3h0.4l0,0H443.2z M467.7,402.4L467.7,402.4c0.1-0.2,0.1-0.4,0.2-0.7C467.8,401.9,467.8,402.2,467.7,402.4z
	 M420.3,351L420.3,351L420.3,351L420.3,351z M443.2,454.3h0.4l0,0H443.2z M467.7,402.4L467.7,402.4c0.1-0.2,0.1-0.4,0.2-0.7
	C467.8,401.9,467.8,402.2,467.7,402.4z"/>
<polygon class="st3" points="564.2,466.7 557,466.3 556.5,444.7 556.4,439.5 564,438.1 564.1,444.7 "/>
<polygon class="st4" points="558.6,462.9 521.5,486.9 520.7,494.2 524.8,494.4 524.8,489.2 549,475 519.7,512.8 519.7,518.6 
	524.6,518.6 524.2,512.2 558,472.1 562.2,472.5 597.9,514.7 598.7,521.8 603.5,522 602.7,514.7 574.5,477.9 593.3,491.5 
	593.7,497.3 597.5,497.6 597.1,490.5 561.2,461.7 "/>
<path class="st5" d="M512,421.9c3.5-4.5,6.4-9.5,8.7-14.8c2.6-5.9,5.3-12.7,5.6-14.7c0.4-3.8,10.6-11.3,21.8-11.7
	c7.3-0.3,18.7-6.2,25.8-10.3c6.6-3.9,14-6.3,21.6-7c8.3-0.6,16,1,12.1,11l-52.5,66.2c0,0-44.8,8.2-47.5-5c-0.2-0.7-0.4-1.3-0.6-1.9
	C506.5,432.4,506.4,429.2,512,421.9z"/>
<path class="st1" d="M516,423.2c3.5-4.6,6.5-9.6,8.8-15c2.4-5.5,4.9-11.7,5.1-13.5c0.4-3.6,10.2-10.8,20.9-11.2
	c7-0.3,17.9-5.9,24.7-9.9c6.4-3.7,13.4-6,20.7-6.6c7.9-0.6,15.3,1,11.6,10.5L566.1,441c0,0-51.4,7.6-54.1-5
	c-0.2-0.7-0.4-1.3-0.6-1.9C511,432.9,510.9,429.8,516,423.2z"/>
<path class="st6" d="M564.1,444.7c-2.4,0-5,0-7.5,0l-0.1-5.1l7.6-1.5V444.7z"/>
<g class="st7">
	<polygon points="593.3,490.3 574.5,476.7 576.6,479.5 593.3,491.5 593.7,497.3 597.5,497.6 597.4,496.3 593.7,496.1 	"/>
	<polygon points="524.8,488 524.8,489.2 547.2,476.1 549,473.8 	"/>
	<polygon points="519.7,517.4 519.7,518.6 524.6,518.6 524.5,517.4 	"/>
	<polygon points="524.8,493.2 520.9,493 520.7,494.2 524.8,494.4 	"/>
	<polygon points="598.7,520.5 597.9,513.4 562.2,471.3 558,470.8 524.2,510.9 524.2,512.1 558,472.1 562.2,472.5 597.9,514.7 
		598.7,521.8 603.5,522 603.4,520.7 	"/>
</g>
<path class="st6" d="M559.8,403.6c0,0,9.4,7.1,5.3,7.2C561,410.9,559.8,403.6,559.8,403.6z"/>
<path class="st5" d="M520.4,442.7c0,0,15.5-1.3,21.3-12.9c0,0,11.8-24.4,21.4-27.1c9.6-2.7,27.5-8.8,34.9-18.2
	c7.4-9.4,10.5-16.6,10.5-16.6s1.9,7.6-4.1,16.6s-8.2,22.8-12.4,37.4s-5.8,20.4-13.4,21.3c-5.7,0.6-36.1,0.3-50.6,0
	C523.3,443,520.4,442.7,520.4,442.7z"/>
<path class="st1" d="M520.4,442.7c0,0,15.5-1.3,21.3-12.9c0,0,11.8-24.4,21.4-27.1c9.6-2.7,27.5-8.8,34.9-18.2
	c7.4-9.4,10.5-16.6,10.5-16.6s1.9,7.6-4.1,16.6s-8.2,22.8-12.4,37.4s-5.8,20.4-13.4,21.3c-5.7,0.6-36.1,0.3-50.6,0
	C523.3,443,520.4,442.7,520.4,442.7z"/>
<path class="st5" d="M524.4,442.7c0,0,14.8-1.2,20.4-12.5c0,0,11.3-23.6,20.5-26.3s26.2-8.5,33.3-17.6s10.1-16.1,10.1-16.1
	s1.8,7.4-3.9,16.1s-7.9,22-11.9,36.2c-4,14.1-5.6,19.8-12.8,20.6c-5.5,0.6-34.5,0.3-48.4,0C527.1,443,524.4,442.7,524.4,442.7z"/>
<path class="st6" d="M512.3,436.6c0,0,8.1,3.2,12.7,1.5c4.6-1.8,16-7,16-7S521.8,432.3,512.3,436.6z"/>
<path class="st8" d="M566.6,588.5c0,0-23.3-1.3-29-4.8s-13.7-3.5-13.8-3.5l-92.9-21.1l-38.6-9.6l-6.9-0.9l22.8-27.1l0.7-0.3
	l33.5-15.1c0,0,15,0.9,18,11.1c0.2,0.7,0.3,1.5,0.4,2.2c0.3,3.2-0.5,6.4-2.4,8.9c-1.2,1.7-2.6,4.1-3.1,6.2c-0.3,1.2-0.2,2.3,0.4,3.1
	c1.3,1.3,2.6,2.4,4.1,3.4c8.2,5.7,28.9,15,65,0.7c0,0,15.4-15.9,27.1-9.1S566.6,588.5,566.6,588.5z"/>
<polygon class="st4" points="386.6,434.8 444.3,436.1 444.3,507.9 389.6,546.5 376.4,533.9 379.1,492.2 376.4,453.3 "/>
<path class="st4" d="M353.9,423.1l67.3-21.6c1.2-0.4,2.5-0.5,3.7-0.4l160.7,12.2c13.7,1,27,5.8,38.3,14.1
	c10.4,7.6,20.7,19.4,25.5,37.1c3.4,13.1,3.2,27-0.7,39.9l-14.2,47.8c0,0,10.6-103.9-95.6-109.1L353.9,423.1z"/>
<path class="st4" d="M389.6,433.3v115.3c0,0-18.4-2.7-21.7-6.4c-2.7-3.1-18.3-11.7-25-20.7c-1.5-2-2.5-3.9-2.9-5.9
	c-2.3-10.7-11.5-36.1-11.5-36.1l2.5-24.8l10.4-16.1l20.2-9.6h15.7L389.6,433.3z"/>
<path class="st9" d="M360.3,434.8c0,0-30,19.6-23.4,51c0.5,2.6,1,5.1,1.3,7.8c1.2,10.2,8.4,39.4,51.3,52.9v3l-18.2-5.3l-12.4-7.1
	l-9.4-8.8L338,513.7l-5.4-12l-2-15.7l-1.1-18l2.8-15.4l6.5-10l7.9-6.4L360.3,434.8z"/>
<path class="st6" d="M389.6,433.3v18.3c-13.1,1.5-53.5,10-46.3,58.7l-0.4,11.2c-1.5-2-2.5-3.9-2.9-5.9
	c-2.3-10.7-11.5-36.1-11.5-36.1l2.5-24.8l10.4-16.1l20.2-9.6h15.7L389.6,433.3z"/>
<path class="st10" d="M458.4,528.3c-1.2,1.7-2.6,4.1-3.1,6.2c-1.8-2.2-2.2-4.7,0.4-6.7c3.3-2.5,4.4-6.8,4.6-10.7
	c0.2,0.7,0.3,1.5,0.4,2.2C461.1,522.5,460.3,525.7,458.4,528.3z"/>
<path class="st4" d="M627.1,540l-7.9,28l-18,18.3l-22.5,4.8l-35.1-6.5V454.8c0,0,6.1-4.1,6.7-4.1c0.6,0,17.5,2.8,17.5,2.8l38.3,28.6
	l1.6,1.2l17.1,26.5L627.1,540z"/>
<polygon class="st4" points="543.6,449.4 543.6,584.6 547,585.2 547,449.4 "/>
<path class="st6" d="M606.9,491.1c-25.1-21.4-52.9-24.6-63.3-25v-11.3c0,0,6.1-4.1,6.7-4.1c0.6,0,17.5,2.8,17.5,2.8l38.3,28.6
	L606.9,491.1z"/>
<path class="st4" d="M538.3,440.7l-156.9-17.8l-17.6-1c-11.1-0.7-21.9,4-29.3,12.8c-9.2,11-16.1,30.4-6,63.7
	c0,0,10.6,43.2,61.8,52.5L539.1,586c3.3,0.8,6.6,1.7,9.8,2.8c13.5,4.6,59.3,16.6,80.9-24.1c7.4-14,9.6-30.2,6.8-45.9
	C631.3,490.1,611.7,441.5,538.3,440.7z M615.2,562.8c-20.1,34.1-61.6,24-74.1,20c-3.1-1-6.1-1.8-9.3-2.5l-137.5-30.6
	c-47.4-8.1-57.1-45.8-57.1-45.8c-8-24.8-4.5-40.8,2-50.9c6.8-10.6,18.5-16.5,30.8-15.9l16.2,0.9l140.3,19.5c2.8,0.4,5.7,0.7,8.6,0.8
	c62.4,2.2,81.8,37.9,86.8,62.6C624.8,535.1,622.6,550.2,615.2,562.8z"/>
<linearGradient id="SVGID_1_" gradientUnits="userSpaceOnUse" x1="-1069.0115" y1="721.511" x2="-1069.0115" y2="486.9969" gradientTransform="matrix(-1 0 0 1 -679.59 -205.91)">
	<stop  offset="0" style="stop-color:#808080;stop-opacity:0.25"/>
	<stop  offset="0.54" style="stop-color:#808080;stop-opacity:0.12"/>
	<stop  offset="1" style="stop-color:#808080;stop-opacity:0.1"/>
</linearGradient>
<path class="st11" d="M287,513.3c5.1,3.6,12.9,1.9,12.9,1.9s11.8-5.8,15.2-5.8c3.5,0,11.9-3.6,11.9-3.6l-0.3-2.4l-0.9-7.3
	c5.4,4.3,11.3,2.8,14.2,2.5c3.1-0.3,20-10.7,21.6-11.4c0.4-0.2,1-0.8,1.5-1.5l0,0c1.1-1.7,2-3.5,2.8-5.4l0,0c1.1-1,1.8-1.7,1.8-1.9
	s0.4-1.4,1-2.9c2.4-0.4,4.4-1.4,5.1-1.9c1.1-0.9,1.7-2.3,1.7-3.8c0,0,16.4-17.2,14.3-24.4c-2.2-7.2,5.3-7.3,5.3-7.3s11.4-5.1,13-8.2
	c1-1.9,9.6-6,16-9l0.8-0.4c2.5,5.7,15.2,1.3,17.7-1.1c2.7-2.6,10.4-3.8,10.4-3.8s0.3-33.5,2.8-37.7c1.2-2,1.5-8.6,1.4-15
	c0-0.2,0-0.4,0-0.7c3.5-0.7,11.8-2.3,15.6-2.7c2.4-0.3,5-1.8,6.9-3.4l0.2,0.3c0.7,0.3,1.4,0.4,2.1,0.4c0.6,0.1,1.3-0.1,1.9-0.4
	c1.5-0.9,7-2.6,9-3.4s-0.3-7-1.8-8.2s-2.5-2.7-1.7-3.4c0.8-0.7-2-2.4-3.6-2.7c-1.7-0.3-6.6-2.7-6.6-2.7s-1.8-3.9-4.8-3.9
	s-7-3.1-7-3.1c-0.2-1.4-3.3-1.5-3.3-1.5s-11.9-9.6-13.9-8.4s-7.5-1.9-7.5-1.9s-6.7,0.8-8.3-0.5l0,0c0-0.4-0.2-0.8-0.4-1.2
	c-0.4-1.2-2.1-2.7-3.8-4.1c0.1-0.8,0.2-1.6,0.2-2.5c0-0.4,0-0.7,0-1.1c0-0.1,0-0.1,0-0.2l0.2-2.4c0-0.8,0.2-1.6,0.6-2.3
	c0.3-0.4,0.7-0.8,1-1.2c0.1-0.1,0.1-0.2,0.2-0.3l0.1-0.1c0-0.1,0.1-0.2,0.1-0.3v-0.1c0.1-0.2,0.2-0.5,0.2-0.7v-0.1
	c0-0.1,0-0.2,0.1-0.3l0,0c0.1-1-0.1-2-0.4-2.9c-0.5-1.6-1.3-3.2-1.4-4.9c0-0.8,0.1-1.7-0.1-2.5c-0.4-1.9-2.2-3-4-3.8
	c-2.5-1.1-3.7-2.2-5.7-3.8c-1.7-1.3-4.4-0.7-6.5-0.5c-4.8,0.3-9.6,1.8-14.1,3.4c-1.8,0.6-3.5,1.3-4.9,2.5c-0.9,0.8-1.6,1.9-1.8,3.2
	l0,0c0,0.3-0.1,0.6-0.1,0.9v0.1c0,0.1,0,0.2,0,0.3v0.1c0,0.1,0.1,0.3,0.1,0.4l0,0c0.2,0.6,0.5,1.2,0.8,1.8c0,0.1,0.1,0.3,0.1,0.4
	l0,0c0,0.1,0.1,0.3,0.1,0.4l0,0c0.2,1.6-0.4,3.2-0.6,4.8c0,0.2-0.1,0.4-0.1,0.7l0,0l0,0c-0.1,0.9,0,1.8,0.2,2.7l0,0
	c0,0.1,0.1,0.2,0.1,0.3v0.1c0,0.1,0.1,0.2,0.1,0.3l0.1,0.2c0,0.1,0.1,0.2,0.1,0.2c0,0.1,0.1,0.1,0.1,0.2s0.1,0.1,0.1,0.2
	s0.1,0.1,0.1,0.2s0.1,0.1,0.1,0.2s0.1,0.1,0.1,0.2l0.1,0.2l0.2,0.2l0.1,0.1l0.2,0.2c0.1,0,0.1,0.1,0.1,0.1c0.1,0,0.2,0.1,0.3,0.2
	l0.1,0.1c0.1,0.1,0.3,0.2,0.4,0.2c1,0.4,2.2,0.6,2.7,1.5c0.1,0.2,0.2,0.4,0.3,0.7c0,0.1,0,0.1,0,0.2v0.2c0,0.5,0,1,0.1,1.5
	c0,0.3,0,0.5,0,0.8c0,0.2,0.1,0.4,0.2,0.6c0.7,3.4,2.4,6.5,5,8.8c0.1,0.3,0.1,0.6,0.2,0.9c-1.5,1.1-3.1,2-4.8,2.6
	c-4,1.2-9.6,6.8-9.6,6.8s-2.8,21-3.5,23.6s-1.2,12.5-1.2,12.5s-0.7,4.1-1.7,6.1c-0.7,1.4-0.6,7.6,1.4,11.4c-0.3,0.7-0.7,1.4-1.2,2.1
	c-4,4.8-15.9,4.6-19.9,4.6c-3.7,0-4.8,2.3-4.9,2.7c-7.3,2.2-30.9,9.2-33.7,10.4c-3.3,1.5-5.1,16.4-5.1,16.4s-6.9,24.7-6.6,28
	c0.3,3.2-2.3,12.3-2.3,12.3s0,10.2-1.1,10.9l0,0c-1.2,0.5-1,5.5-1,5.5s0.9,0.3,2.2,0.6c-0.4,2.5-1.7,6-2.7,8.5c-0.5-0.7-1-1-1.3-0.2
	c-0.8,2.2-13.3,17.5-16.4,17.5c-1.5,0-4,1.3-5.6,3C285,509,284.3,511.4,287,513.3z M344,424.4c14.1,1.4,29.2-1,29.2-1
	s-1.2,4.3-2.2,6s-3.8,11.4-3.8,13.5c0,2-4.5,19.6-5.8,20.5c-0.6,0.4-1.1,1.3-1.4,2.2c-0.3,0.8-0.6,1.7-0.9,2.6
	c0,0.4,0.1,0.9,0.1,1.3c-1,0.9-2,1.9-3,2.8l0,0c0,0-5.9,3.4-7.9,5.3s-11.3,4.2-11.3,4.2c-2.3,1-4.5,2.2-6.7,3.5
	c-2.9,1.8-5.8,4.1-6.5,6.4c0.3-3.8,0.9-8.4,1.2-11.3h0.5c4.6-0.3,4-4.9,3.7-6.1c0-0.2-0.1-0.3-0.1-0.3c3.3-3.8,10.8-31.7,9.8-34.8
	c-1-3.1,0.8-5.8,1.2-5.8s0.9-3.4,0.1-5.3S344,424.4,344,424.4z M457.9,349.1l-0.9,0.2v-0.2C457,349.1,457.4,349.1,457.9,349.1z
	 M409.8,323.3c-0.1,0.2-0.3,0.3-0.4,0.5l-0.2,0.2c0-0.3,0-0.6,0-0.9C409.4,323.2,409.6,323.3,409.8,323.3z M393.2,356.5l0.1,1
	c0,0-0.1,0.6-0.3,1.6L393.2,356.5z M469.3,346.9l-2.9,0.5c0.4-0.2,0.8-0.3,1.2-0.5c0.3-0.1,0.6-0.2,0.9-0.3c0.4,0,0.7,0.1,1.1,0.2
	C469.5,346.9,469.4,346.9,469.3,346.9z"/>
<path class="st8" d="M371.5,470.1c0,0-3.3,7.2-3.2,7.7c0.2,0.5-7.2,6.6-7.2,6.6l-8-5.9l0.8-4.1c0,0,8.9-8.4,9.6-9.4
	S371.5,470.1,371.5,470.1z"/>
<path class="st4" d="M326,494.4c5.5,5.6,12,3.9,15.1,3.6c3.1-0.4,19.6-10.7,21.2-11.3c0.4-0.2,0.9-0.8,1.4-1.5l0,0
	c1.1-1.7,2-3.5,2.8-5.4c-0.1,0-5.5,1.6-6.9,0c0,0-2.3-2.9-2.8-2.9s0-5.1,0-5.1s-5.8,3.4-7.8,5.3c-1.9,1.9-11.1,4.1-11.1,4.1
	c-2.3,1-4.4,2.2-6.5,3.5C327.2,487.4,322.9,491.2,326,494.4z"/>
<path class="st6" d="M326,494.4c5.5,5.6,12,3.9,15.1,3.6c3.1-0.4,19.6-10.7,21.2-11.3c0.4-0.2,0.9-0.8,1.4-1.5
	c-1.9-1.2-14.5,7.1-18,8.7s-12.4,0.7-17.5-1.5c-2.5-1.1,0-4.5,3.2-7.6C327.2,487.4,322.9,491.2,326,494.4z"/>
<path class="st8" d="M326.7,476.8c0,0-2.3,18.1-1.7,20.5c0.6,2.4-14.5-8.1-14.5-8.1s5.3-11.4,3.8-14
	C312.6,472.6,326.7,476.8,326.7,476.8z"/>
<path class="st4" d="M312.2,477.1c0,0,9.4,2.9,14.6,2.5c4.6-0.3,3.9-4.9,3.6-6c0-0.2-0.1-0.3-0.1-0.3c3.3-3.7,10.6-31.5,9.6-34.6
	c-1-3,0.8-5.7,1.2-5.7s0.9-3.4,0.1-5.3s3.6-3.6,3.6-3.6c13.8,1.4,28.6-1,28.6-1s-1.1,4.3-2.1,5.9c-1,1.7-3.8,11.3-3.8,13.4
	c0,2-4.4,19.5-5.7,20.3c-0.5,0.4-1,1.2-1.4,2.2c-0.3,0.8-0.6,1.7-0.9,2.6c0.5,11.3,12.9,7,14.6,5.4c0.3-0.2,0.5-0.5,0.7-0.7
	c0.6-0.9,1-1.9,0.9-3c0,0,16.1-17.1,14-24.2s5.2-7.3,5.2-7.3s11.2-5.1,12.8-8.1c1-1.9,9.4-6,15.7-8.9c4-1.8,7.1-3.1,7.1-3.1
	l-2.6-9.8l-2.1-7.8l-3.9-1.5l-12.5-4.9l-22.5-3.3l-2.1,0.3l-21.8,2.9c0,0-31.9,9.5-35.1,11s-5,16.3-5,16.3s-6.8,24.6-6.5,27.8
	s-2.3,12.2-2.3,12.2s0,10.1-1.1,10.8l0,0C312.1,472.3,312.2,477.1,312.2,477.1z"/>
<path class="st12" d="M344.9,424.3c13.8,1.4,28.6-1,28.6-1c1-3.2,14.7-12,14.7-12C377,408.4,344.9,424.3,344.9,424.3z"/>
<path class="st13" d="M359.7,467.7c0.5,11.3,12.9,7,14.6,5.4c0.3-0.2,0.5-0.5,0.7-0.7c-4.3,1.7-12,2.9-14.5-7.3
	C360.2,465.9,360,466.8,359.7,467.7z"/>
<path class="st13" d="M312.2,477.1c0,0,9.4,2.9,14.6,2.5c4.6-0.3,3.9-4.9,3.6-6c-4.8-0.2-13-0.6-17.3-2l0,0
	C312.1,472.3,312.2,477.1,312.2,477.1z"/>
<path class="st1" d="M359.7,467.7c0.5,11.3,12.9,7,14.6,5.4c0.3-0.2,0.5-0.5,0.7-0.7c-4.3,1.7-12,2.9-14.5-7.3
	C360.2,465.9,360,466.8,359.7,467.7z"/>
<path class="st1" d="M312.2,477.1c0,0,9.4,2.9,14.6,2.5c4.6-0.3,3.9-4.9,3.6-6c-4.8-0.2-13-0.6-17.3-2l0,0
	C312.1,472.3,312.2,477.1,312.2,477.1z"/>
<path class="st4" d="M288.9,512.5c5,3.6,12.7,1.9,12.7,1.9s11.5-5.8,15-5.8c3.4,0,11.7-3.6,11.7-3.6l-0.3-2.4l-1.3-11.5
	c0,0-12.7-0.3-13.2-1.5c0,0-2.3-5.8-3.1-3.7c-0.8,2.2-13,17.4-16.1,17.4c-1.5,0-3.9,1.3-5.5,3C287.1,508.3,286.3,510.7,288.9,512.5z
	"/>
<path class="st12" d="M332.7,412.4c0,0,10.6,7,7.6,8.5C337.4,422.4,332.7,412.4,332.7,412.4z"/>
<path class="st12" d="M328.3,425.8c0,0,9.1,9,5.7,9.2C330.6,435.3,328.3,425.8,328.3,425.8z"/>
<path class="st6" d="M318.6,454.4c0,0,4.6,9.1,2.9,10.6S318.6,454.4,318.6,454.4z"/>
<path class="st6" d="M369.5,463.6c-1.6,1.7,15.4-5.6,11.5-5.9C377.1,457.3,369.5,463.6,369.5,463.6z"/>
<path class="st14" d="M403.6,336.6l0.5-0.1c2-0.3,9.4-1.5,15.9-3c1.6-0.4,3.2-0.7,4.6-1.1c5-1.4,8.4-2.9,6.3-4.1
	c-2.9-1.6-4.4-4.5-5.2-7.1c-0.1-0.2-0.1-0.5-0.2-0.7c-0.4-1.3-0.6-2.6-0.7-3.9c0,0-18.4-6.8-14.8,0c1.8,3.3,0.6,6-1.1,7.9
	c-1.1,1.3-2.5,2.3-4,3.1L403.6,336.6z"/>
<path class="st6" d="M423.3,331.3c0,0-6.6,4.9-13.3,0.8S394.5,368,394.5,368l-9.1,23.4c0,0-5.9,5.1,1.4,7.3s23.6-2.2,27.8,4.2
	s12,7.5,12.8,7.5s3.9-24.2,3.9-24.2l0.8-35.1L423.3,331.3z"/>
<path class="st15" d="M387.2,397.4c7.3,2.2,23.6-2.2,27.8,4.2c1.7,2.6,4.2,4.7,7,5.9c1.8,0.9,3.8,1.4,5.8,1.6c0.1,0,0.3-0.4,0.4-1.2
	c1.1-4.9,3.5-23,3.5-23l0.8-35.1l-7.7-17.5l-1.1-2.4c-1,0.7-2.2,1.3-3.3,1.7c-2.5,0.9-6.2,1.4-9.9-0.9c-2-1.2-4.1,1.4-6.2,5.7
	c-4.9,10.3-9.3,30.2-9.3,30.2l-9.1,23.4c-0.2,0.2-0.4,0.4-0.6,0.6C383.8,392.1,381.4,395.6,387.2,397.4z"/>
<path class="st6" d="M422.2,398.5c-0.4,3-0.4,5.9-0.2,8.9c0.3,4.2,0.8,8.4,1.5,12.6c0,0.3,0.1,0.5,0.2,0.8c4-1.8,7.1-3.1,7.1-3.1
	l-2.6-9.8c1.1-4.9,3.5-23,3.5-23l0.8-35.1l-7.7-17.4c5-1.4,8.4-2.9,6.3-4.1c-3.1-1.8-4.6-5.1-5.4-7.8c-1.3,1.9-2.9,3.7-4.6,5.2
	l-0.1,0.1l-0.6,5.9l-0.2,1.8l-0.4,3.8c0,0,1.8,44.5,3.1,47.1c1.3,2.5,0.7,7.5-0.5,13.2C422.3,397.9,422.2,398.2,422.2,398.5z"/>
<path class="st4" d="M423,396.9c-1.1,5.8-0.2,15.2,1.1,22.5c1.3,7.3,15.1,2.5,17.7,0s10.2-3.7,10.2-3.7s0.3-33.2,2.8-37.4
	c1.2-2,1.4-8.6,1.4-14.9c0-5.7-0.3-11.2-0.4-13c0-0.4,0-0.7,0-0.7s10.6-18.6,10.4-20s-3.3-1.5-3.3-1.5s-11.7-9.5-13.7-8.3
	s-7.3-1.9-7.3-1.9s-6.8,0.8-8.2-0.6c-0.2-0.2-0.3-0.4-0.3-0.6c0.2-2.2-6.9-6.8-7.2-7c6,5.6-3.7,14.2-4.8,15.2l-0.1,0.1l-1.1,11.5
	c0,0,1.8,44.5,3.1,47.1C424.8,386.2,424.1,391.1,423,396.9z"/>
<ellipse class="st13" cx="423.6" cy="348.5" rx="0.8" ry="0.8"/>
<path class="st6" d="M422,325.7l4.9,5l7.2-12.6c-0.2-0.2-0.3-0.4-0.3-0.6c0.2-2.2-6.9-6.8-7.2-7C432.7,316.1,423.1,324.7,422,325.7z
	"/>
<ellipse class="st6" cx="425.3" cy="375.6" rx="0.8" ry="0.8"/>
<ellipse class="st13" cx="425.3" cy="375.2" rx="0.8" ry="0.8"/>
<path class="st4" d="M421.6,325l4.9,5l7.2-12.6c-0.2-0.2-0.3-0.4-0.3-0.6c0.2-2.2-6.9-6.8-7.2-7C432.4,315.4,422.7,324,421.6,325z"
	/>
<path class="st16" d="M427.1,372.6l-9.9-0.2c-0.4,0-0.7-0.3-0.7-0.8l0.5-23.4c0-0.4,0.3-0.7,0.7-0.7l9.9,0.2c0.4,0,0.7,0.3,0.7,0.8
	l-0.5,23.4C427.8,372.3,427.5,372.7,427.1,372.6z"/>
<path class="st8" d="M427.2,373.2l-9.9-0.2c-0.4,0-0.7-0.3-0.7-0.8l0.5-23.4c0-0.4,0.3-0.7,0.7-0.7l9.9,0.2c0.4,0,0.7,0.3,0.7,0.8
	l-0.5,23.4C427.9,372.9,427.6,373.2,427.2,373.2z"/>
<ellipse class="st5" cx="422.8" cy="355.5" rx="1.8" ry="1.9"/>
<path class="st6" d="M361.5,395.3c4.1,1.9,30.7-3,34.7-4.2s9.6-10.3,6.8-17c-2.8-6.6,1-13,1-13s5.8-13,7.2-15.6
	c1.3-2.5,4-9.9,4.4-11.2c0-0.3-0.1-0.6-0.2-0.8c-1.1-1.7-5.2-4.6-5.2-4.6c-1.1,0.4-1.3-3-1.3-5.5c0-1.4,0.1-2.5,0.1-2.5
	s-0.5,0.6-1.4,1.3c-0.3,0.3-0.7,0.6-1.1,0.9c-1.5,1.3-3.3,2.3-5.1,2.9c-3.9,1.2-9.4,6.8-9.4,6.8l1.6,26c0,0-3.8,24.5-7.6,29.2
	c-3.9,4.7-15.6,4.6-19.5,4.6S361.5,395.3,361.5,395.3z"/>
<path class="st4" d="M361.2,394.3c4.1,1.9,30.7-3,34.7-4.2c3.9-1.2,9.6-10.3,6.8-17c-2.8-6.6,1-13,1-13s5.8-13,7.2-15.6
	c1.3-2.5,4-9.9,4.4-11.2c0-0.3-0.1-0.6-0.2-0.8c-1.1-1.7-5.1-4.6-5.1-4.6c-1.1,0.4-1.3-3-1.3-5.5c0-1.4,0.1-2.5,0.1-2.5
	s-0.5,0.6-1.4,1.4c-0.3,0.3-0.7,0.6-1.1,0.9c-1.5,1.3-3.3,2.3-5.1,2.9c-3.9,1.2-9.4,6.8-9.4,6.8l1.6,26c0,0-3.8,24.5-7.6,29.2
	c-3.9,4.7-15.6,4.6-19.5,4.6S361.2,394.3,361.2,394.3z"/>
<path class="st6" d="M405.4,320.6c0,0,0.2,0.9,0.4,2.3c0.9,4.7,3,14.8,4.5,14.4c1.1-0.3,2.9-2.3,4.3-4c-1.1-1.7-5.1-4.6-5.1-4.6
	c-1.1,0.4-1.3-3-1.3-5.5l-1.3-1.2L405.4,320.6z"/>
<path class="st4" d="M405.8,319.9c0,0,0.2,0.9,0.4,2.3c0.9,4.7,3,14.8,4.5,14.4c1.1-0.3,2.9-2.3,4.3-4c-1.1-1.7-5.1-4.6-5.1-4.6
	c-1.1,0.4-1.3-3-1.3-5.5l-1.3-1.2L405.8,319.9z"/>
<path class="st8" d="M395.3,369.8c0,0,8.1-1.7,10.4-5.4c2.3-3.7,17.8-7,15.9-3c-1.9,3.9-15.9,16.6-15.9,16.6l-6.1,9l-8.1-2.1
	l-3.4-6.9L395.3,369.8z"/>
<path class="st6" d="M414.6,379.4c0,0-7.9,3-9.1,7.1S414.6,379.4,414.6,379.4z"/>
<path class="st6" d="M419.4,384.2c0,0,0.7,4.2-9.2,3.9L419.4,384.2z"/>
<path class="st6" d="M462,330l3.6-0.3c0,0,3.9,3,6.8,3s4.7,3.9,4.7,3.9s4.9,2.4,6.5,2.7c1.6,0.3,4.4,2,3.6,2.7s0.2,2.2,1.6,3.4
	c1.5,1.2,3.8,7.3,1.8,8.1s-7.3,2.5-8.8,3.4s-3.3,0-3.3,0s-8.6-11.7-13-9.5s-10.4,2.2-10.4,2.2l-4.7-10.3L462,330z"/>
<path class="st4" d="M387.2,385.7c0.8,1.2,1.8,2,3,2.2c3.2,0.4,6.4,0.1,9.5-0.9c0,0-16.4-5.4-0.6-18.6h-4.2l-1.4-0.6l0.6-3.5
	l0.9-31.6l-3.4-0.8c0,0-2.8,20.8-3.4,23.4s-1.1,12.4-1.1,12.4s-0.7,4.1-1.6,6.1C384.7,375.2,384.9,382.1,387.2,385.7z"/>
<path class="st6" d="M387.8,385.7c0.8,1.2,1.8,2,3,2.2c3.2,0.4,6.4,0.1,9.5-0.9c0,0-16.4-5.4-0.6-18.6h-4.2l-1.4-0.6
	C391.8,372.1,388.1,379.7,387.8,385.7z"/>
<path class="st17" d="M387.2,385.7c0.8,1.2,1.8,2,3,2.2c3.2,0.4,6.4,0.1,9.5-0.9c0,0-16.4-5.4-0.6-18.6h-4.2l-1.4-0.6
	C391.1,372.1,387.5,379.7,387.2,385.7z"/>
<path class="st4" d="M387.2,385.7c0.8,1.2,1.8,2,3,2.2c3.2,0.4,6.4,0.1,9.5-0.9c0,0-16.4-5.4-0.6-18.6h-4.2l-1.4-0.6
	C391.1,372.1,387.5,379.7,387.2,385.7z"/>
<path class="st6" d="M409.1,324.5c5.7,2.7,12.4,1.4,16.8-3.3c-0.1-0.2-0.1-0.5-0.2-0.7c-0.4-1.3-0.6-2.6-0.7-3.9
	c0,0-18.4-6.8-14.8,0C411.9,319.9,410.7,322.6,409.1,324.5z"/>
<path class="st8" d="M400.4,309.8v0.2c0,0.5,0,1,0.1,1.5s0.1,0.9,0.2,1.4c1.6,8.3,9.4,13.8,17.4,12.1c5.2-1.1,9.4-4.9,11.1-10.1
	c0.1-0.3,0.2-0.6,0.3-0.9c0.4-1.3,0.5-2.7,0.5-4.1c0-0.4,0-0.7,0-1.1c-0.6-8.5-7.7-14.9-15.8-14.3
	C406.4,295,400.4,301.7,400.4,309.8L400.4,309.8z"/>
<path class="st6" d="M400.4,310c0.1,0.5,0.1,1,0.1,1.5c0,0.3,0,0.5,0,0.8c0,0.2,0.1,0.4,0.2,0.6c0.6,1.5,2.6,2.4,3.8,1.5
	c0.5-0.4,0.9-1,1.2-1.6c1.4-2.6,3.3-5.7,6.3-5.7c1.3,0,2.5,0.5,3.7,0.9c1.2,0.3,2.7,0.4,3.6-0.5c0.7-0.7,1-1.8,2-2.1
	c0.9-0.2,1.8,0.7,2.3,1.6s0.8,1.9,1.7,2.4c0.4,0.2,0.8,0.3,1.3,0.5c1.8,1,1,4.5,2.8,5.1c0.1,0,0.1,0,0.2,0c0-0.3,0.1-0.6,0.1-0.9
	c0.2-1.7,0.3-3.4,0.5-5.2c-0.6-8.5-7.7-14.9-15.8-14.3c-7.7,0.6-13.7,7.3-13.8,15.3L400.4,310z"/>
<path class="st4" d="M426.7,286.8c1.7,0.8,3.6,2,3.9,3.8c0.2,0.8,0,1.7,0.1,2.5c0.1,1.7,0.8,3.2,1.3,4.8c0.5,1.6,0.7,3.5-0.3,4.8
	c-0.3,0.4-0.7,0.8-1,1.2c-0.4,0.7-0.6,1.5-0.6,2.3l-0.8,8.3c-2.1-0.4-1.1-4.1-3-5.2c-0.4-0.2-0.8-0.3-1.2-0.5
	c-0.9-0.4-1.2-1.5-1.7-2.4c-0.4-0.9-1.3-1.8-2.3-1.6s-1.3,1.4-2,2.1c-0.9,0.9-2.4,0.8-3.6,0.5s-2.4-0.9-3.7-0.9
	c-3,0.1-4.9,3.1-6.3,5.7c-0.3,0.6-0.7,1.2-1.2,1.6c-1.5,1.1-3.8-0.3-4-2.1c-0.1-1,0.2-2.1-0.4-2.9s-1.7-1-2.7-1.5
	c-2.4-1.1-3.1-4.2-2.7-6.8c0.3-1.9,1-3.8,0.4-5.6c-0.2-0.6-0.6-1.2-0.7-1.8c-0.5-1.7,0.3-3.7,1.7-4.9c1.3-1.2,3.1-1.9,4.8-2.5
	c4.4-1.6,9.1-3,13.8-3.4c2.1-0.1,4.8-0.8,6.4,0.5C423.1,284.6,424.3,285.7,426.7,286.8z"/>
<ellipse class="st6" cx="422.8" cy="335.1" rx="0.8" ry="0.8"/>
<ellipse class="st13" cx="422.8" cy="334.8" rx="0.8" ry="0.8"/>
<ellipse class="st6" cx="428" cy="388.3" rx="0.8" ry="0.8"/>
<ellipse class="st13" cx="428" cy="387.9" rx="0.8" ry="0.8"/>
<ellipse class="st6" cx="425.3" cy="402.3" rx="0.8" ry="0.8"/>
<ellipse class="st13" cx="425.3" cy="402" rx="0.8" ry="0.8"/>
<path class="st6" d="M397.3,348.5c0,0-1.8,12.6,0,14.9S397.3,348.5,397.3,348.5z"/>
<path class="st6" d="M450.5,372c0,0,3.4,7.7,0,15s-5.5,10.3-4.4,15S450.5,372,450.5,372z"/>
<path class="st12" d="M288.9,512.5c5,3.6,12.7,1.9,12.7,1.9s11.5-5.8,15-5.8c3.4,0,11.7-3.6,11.7-3.6l-0.3-2.4
	c-3.4,0.7-11,2.3-11.9,3.1c-1.1,1-15.1,5.9-15.1,5.9s-9.5-1.2-12.2-5.3C287.1,508.3,286.3,510.7,288.9,512.5z"/>
<g class="st7">
	<path d="M430.7,291.7c0-0.2,0-0.4,0-0.6C430.7,291.4,430.7,291.6,430.7,291.7C430.7,291.8,430.7,291.7,430.7,291.7z"/>
	<path d="M397.4,306.1c0.9,0.4,2.1,0.6,2.7,1.5s0.3,2,0.4,2.9c0.2,1.8,2.5,3.1,4,2.1c0.5-0.4,0.9-1,1.2-1.6c1.4-2.6,3.3-5.7,6.3-5.7
		c1.3,0,2.5,0.5,3.7,0.9s2.7,0.4,3.6-0.5c0.7-0.7,1-1.8,2-2.1s1.8,0.7,2.3,1.6c0.4,0.9,0.8,1.9,1.7,2.4c0.4,0.2,0.8,0.3,1.2,0.5
		c1.8,1,0.9,4.8,3,5.2c0.3-2.8,0.5-5.6,0.8-8.3c0-0.8,0.2-1.6,0.6-2.2c0.3-0.4,0.7-0.8,1-1.2c0.4-0.5,0.6-1.1,0.7-1.8
		c0.2,1.1-0.1,2.2-0.7,3.1c-0.3,0.4-0.7,0.8-1,1.2c-0.4,0.7-0.6,1.5-0.6,2.3c-0.3,2.8-0.5,5.6-0.8,8.3c-2.1-0.4-1.1-4.1-3-5.2
		c-0.4-0.2-0.8-0.3-1.2-0.5c-0.9-0.4-1.2-1.5-1.7-2.4c-0.4-0.9-1.3-1.8-2.3-1.6s-1.3,1.4-2,2.1c-0.9,0.9-2.4,0.8-3.6,0.5
		s-2.4-0.9-3.7-0.9c-3,0.1-4.9,3.1-6.3,5.7c-0.3,0.6-0.7,1.2-1.2,1.6c-1.5,1.1-3.8-0.3-4-2.1c-0.1-1,0.2-2.1-0.4-2.9s-1.7-1-2.7-1.5
		c-2.2-1-3-3.7-2.8-6.1C394.8,303.3,395.7,305.3,397.4,306.1z"/>
	<path d="M394.4,291.9c0.2,0.6,0.5,1.2,0.7,1.8c0.2,0.7,0.3,1.5,0.2,2.2c0-0.3-0.1-0.6-0.2-0.9c-0.2-0.6-0.6-1.2-0.7-1.8
		c-0.2-0.6-0.2-1.2-0.1-1.8C394.3,291.6,394.4,291.8,394.4,291.9z"/>
</g>
<path class="st18" d="M486.2,431.4l-33.5-4.4c-0.7-0.1-1.2-0.8-1.1-1.5c0-0.3,0.2-0.6,0.4-0.8l14.1-15.2c0.3-0.3,0.7-0.4,1.1-0.4
	l25.6,3c0.7,0.1,1.2,0.7,1.1,1.5c0,0.1,0,0.2-0.1,0.3l-6.2,16.6C487.3,431.1,486.8,431.5,486.2,431.4z"/>
<path class="st6" d="M486.2,431.4l-33.5-4.4c-0.7-0.1-1.2-0.8-1.1-1.5c0-0.3,0.2-0.6,0.4-0.8l14.1-15.2c0.3-0.3,0.7-0.4,1.1-0.4
	l25.6,3c0.7,0.1,1.2,0.7,1.1,1.5c0,0.1,0,0.2-0.1,0.3l-6.2,16.6C487.3,431.1,486.8,431.5,486.2,431.4z"/>
<path class="st4" d="M485.8,431l-33.5-4.4c-0.7-0.1-1.2-0.8-1.1-1.5c0-0.3,0.2-0.6,0.3-0.8l14.1-15.2c0.3-0.3,0.7-0.4,1.1-0.4
	l25.6,3c0.7,0.1,1.2,0.7,1.1,1.5c0,0.1,0,0.2-0.1,0.3l-6.2,16.6C487,430.7,486.4,431.1,485.8,431z"/>
<path class="st4" d="M465.8,415.1l10.1,0.8l14.4-1H490l-13.3-1.3c-3-1.2-0.9-8-0.9-8l-10.2,0.5h-0.8
	C461.2,415,465.8,415.1,465.8,415.1z"/>
<path class="st6" d="M465.8,415.1l10.1,0.8l14.4-1H490l-14.5,0.5l-9.7-1.1c-2.8-0.8-1.2-5.7-0.2-8.3h-0.8
	C461.2,415,465.8,415.1,465.8,415.1z"/>
<path class="st4" d="M448.2,352.8l3.1,46l0.4,6c0.1,1.4,1.2,2.5,2.5,2.4h0.9l46.4-0.3c0.7,0,1.3-0.6,1.3-1.4v-0.1l-0.4-6l-3.3-40.5
	c-0.1-1.1-0.8-2-1.8-2.3l-44.2-6.9c-1.5-0.5-3-0.4-4,0.5C448.4,350.8,448.1,351.8,448.2,352.8z"/>
<path class="st4" d="M451.3,398.8l0.4,6c0.1,1.4,1.2,2.5,2.5,2.4h0.9l46.4-0.3c0.7,0,1.3-0.6,1.3-1.4v-0.1l-0.4-6L451.3,398.8z"/>
<ellipse class="st14" cx="482.4" cy="403.8" rx="0.6" ry="1.3"/>
<path class="st16" d="M480.6,421c0,0-12.7-5-16.1-1.4c0,0-0.6,1.1,1.7,1.4l9.3,0.8C475.5,421.8,479.3,422.2,480.6,421z"/>
<path class="st4" d="M480.2,419.7c-2.5-1.1-10-3.8-14.8-0.8c0,0,5.3-0.6,8.2,1.1s6.9,0.9,6.9,0.9l0.1-0.1
	C480.8,420.5,480.7,420,480.2,419.7C480.3,419.7,480.2,419.7,480.2,419.7z"/>
<path class="st19" d="M448.2,352.8l3.5,52.1c0.1,1.4,1.2,2.5,2.5,2.4h0.9c-0.6-0.6-1.2-1.4-1.6-2.2c0,0-3.4-52.3-3.7-53.6
	c-0.1-0.5-0.3-0.9-0.7-1.3C448.4,350.9,448.1,351.8,448.2,352.8z"/>
<path class="st12" d="M448.2,352.8l3.5,52.1c0.1,1.4,1.2,2.5,2.5,2.4h0.9c-0.6-0.6-1.2-1.4-1.6-2.2c0,0-3.4-52.3-3.7-53.6
	c-0.1-0.5-0.3-0.9-0.7-1.3C448.4,350.9,448.1,351.8,448.2,352.8z"/>
<path class="st6" d="M442.2,367.2c3.8-0.9,12.5-3.5,12.5-3.5l1.6-0.3c0-5.7-0.3-11.2-0.4-13l0,0c0,0-7.5,2.5-9.3,3.9s-7.3,1-7.3,1
	s-8.6,0.5-15.8,8.8C416.3,372.3,438.5,368.1,442.2,367.2z"/>
<path class="st8" d="M478.8,352.1c1.1,0.5,1.6,1.9,1.1,3c-0.1,0.3-0.3,0.6-0.6,0.8c-2,1.7-4.9,3.8-7.6,4c-4.6,0.5-15.7,2.8-16.8,3
	c-0.1,0-0.1,0-0.2,0c-0.9,0.3-8.9,2.7-12.4,3.5c-3.8,0.9-25.9,5.1-18.7-3.2c6.6-7.6,14.4-8.7,15.6-8.8c0.1,0,0.2,0,0.3,0
	c0.8,0,5.6,0.2,7.2-1c0.9-0.6,1.8-1,2.7-1.4c3.5-1.5,7.2-2.6,11-3.3l7.7-1.4c0.4-0.1,0.9,0,1.3,0.2L478.8,352.1z"/>
<path class="st4" d="M462.7,330l3.6-0.3c0,0,3.9,3,6.8,3s4.7,3.9,4.7,3.9s4.9,2.4,6.5,2.7c1.6,0.3,4.4,2,3.6,2.7s0.2,2.2,1.6,3.4
	c1.5,1.2,3.8,7.3,1.8,8.1s-7.3,2.5-8.8,3.4s-3.3,0-3.3,0s-8.6-11.7-13-9.5s-10.4,2.2-10.4,2.2l-4.7-10.3L462.7,330z"/>
<path class="st5" d="M676.9,542.9c-0.4,0.6-0.7,1.2-0.9,1.9c-0.1,0.2-0.1,0.3-0.2,0.5c-0.1-0.1-0.2-0.1-0.3-0.1
	c-0.5-0.1-1-0.2-1.5-0.1c0-0.2,0-0.4,0-0.6c0.1-2.3-0.2-5.5-2.3-4.1c-2,1.3-0.6,3.5,0.7,4.9l0.3,0.3c-1.2,0.9-1.4,2.9-1.6,5.1
	s-1.9,4.5-3.1,5.8c-0.1,0.1-0.2,0.3-0.3,0.4c-0.9-0.8-2.2-1.1-3.3-0.9l-0.2-0.6c-0.9-3.5-2.9-9.6-5.4-10.9c0.1-0.1,0.2-0.3,0.3-0.4
	c1.1-1.4,2.2-3.6,0.5-4.1s-1.9,1.8-1.8,3.6c0,0.2,0,0.4,0.1,0.6c-0.7,0-1.4,0.4-1.8,0.9l-0.3-0.3c-1.4-1.7-4-4.5-4.8-2.4
	c-0.7,1.9,1.6,4.5,3.2,5.9l0.1,0.1c-1.1,4.6,3.6,8.3,6.2,9.9l0.3,0.2c-3.5,4.3-5.7,12.4-5.7,12.4l9.8,1.8c0,0,6.5-5.9,5.7-11.3h0.1
	c6.5-1.4,8-8.6,7-12.9l0.1-0.1c1.2-0.5,2.2-1.3,3-2.4C682.6,543.3,678.8,540.4,676.9,542.9z"/>
<path class="st6" d="M676.9,542.9c-0.4,0.6-0.7,1.2-0.9,1.9c-0.1,0.2-0.1,0.3-0.2,0.5c-0.1-0.1-0.2-0.1-0.3-0.1
	c-0.5-0.1-1-0.2-1.5-0.1c0-0.2,0-0.4,0-0.6c0.1-2.3-0.2-5.5-2.3-4.1c-2,1.3-0.6,3.5,0.7,4.9l0.3,0.3c-1.2,0.9-1.4,2.9-1.6,5.1
	s-1.9,4.5-3.1,5.8c-0.1,0.1-0.2,0.3-0.3,0.4c-0.9-0.8-2.2-1.1-3.3-0.9l-0.2-0.6c-0.9-3.5-2.9-9.6-5.4-10.9c0.1-0.1,0.2-0.3,0.3-0.4
	c1.1-1.4,2.2-3.6,0.5-4.1s-1.9,1.8-1.8,3.6c0,0.2,0,0.4,0.1,0.6c-0.7,0-1.4,0.4-1.8,0.9l-0.3-0.3c-1.4-1.7-4-4.5-4.8-2.4
	c-0.7,1.9,1.6,4.5,3.2,5.9l0.1,0.1c-1.1,4.6,3.6,8.3,6.2,9.9l0.3,0.2c-3.5,4.3-5.7,12.4-5.7,12.4l9.8,1.8c0,0,6.5-5.9,5.7-11.3h0.1
	c6.5-1.4,8-8.6,7-12.9l0.1-0.1c1.2-0.5,2.2-1.3,3-2.4C682.6,543.3,678.8,540.4,676.9,542.9z"/>
<path class="st5" d="M657.4,545.9l-1.1,3.5c0,0-0.6-0.5-1.4-1.2c-1.6-1.5-3.9-4-3.2-5.9c0.8-2.1,3.4,0.7,4.8,2.4
	C657,545.4,657.4,545.9,657.4,545.9z"/>
<path class="st5" d="M659.8,543.9c-0.4,0.5-0.7,0.9-1.1,1.4c-0.1-0.6-0.2-1.2-0.2-1.8c-0.1-1.8,0.1-4.2,1.8-3.6
	C662,540.3,660.9,542.5,659.8,543.9z"/>
<path class="st5" d="M674.6,544.4c0,1.2-0.1,2.1-0.1,2.1c-0.5-0.4-1-0.9-1.4-1.3c-1.3-1.4-2.7-3.6-0.7-4.9
	C674.4,539,674.7,542.2,674.6,544.4z"/>
<path class="st5" d="M681.4,546c-0.8,1-1.8,1.9-3,2.4c-0.3,0.2-0.7,0.3-1,0.4l-1.4-2c0.1-0.7,0.3-1.3,0.6-1.9
	c0.2-0.7,0.5-1.3,0.9-1.9C679.4,540.4,683.2,543.3,681.4,546z"/>
<path class="st6" d="M656.4,544.7c0.6,0.7,0.9,1.2,0.9,1.2l-1.1,3.5c0,0-0.6-0.5-1.4-1.2c0.2-1.1,0.6-2.2,1.3-3.1
	C656.2,544.9,656.3,544.8,656.4,544.7z"/>
<path class="st6" d="M659.8,543.9c-0.4,0.5-0.7,0.9-1.1,1.4c-0.1-0.6-0.2-1.2-0.2-1.8C659,543.4,659.4,543.6,659.8,543.9z"/>
<path class="st5" d="M665.4,557.8l-2.9,1.3c-0.5-0.3-1-0.6-1.5-0.9c-3-1.9-9-6.8-5-12.5s7.4,4.5,8.8,9.5
	C665.2,556.8,665.4,557.8,665.4,557.8z"/>
<path class="st6" d="M673,545.2c0.4-0.4,1-0.7,1.6-0.7c0,1.2-0.1,2.1-0.1,2.1C674,546.1,673.5,545.7,673,545.2z"/>
<path class="st6" d="M678.4,548.3c-0.3,0.2-0.7,0.3-1,0.4l-1.4-2c0.1-0.7,0.3-1.3,0.6-1.9C677.4,545.3,678.1,546.7,678.4,548.3z"/>
<path class="st5" d="M671.3,561.2c-0.2,0-0.3,0.1-0.5,0.1c-9.6,1.5-3.2-3.9-3.2-3.9s0.4-0.4,1-1.1c1.2-1.3,2.9-3.6,3.1-5.8
	c0.3-3.2,0.7-6.3,4.3-5.4C679.7,546.1,680.3,559.4,671.3,561.2z"/>
<rect x="649.9" y="569.8" class="st20" width="23.9" height="17.5"/>
<rect x="649.9" y="569.8" class="st6" width="23.9" height="17.5"/>
<path class="st6" d="M664.8,555.3c0.4,1.5,0.6,2.5,0.6,2.5l-2.9,1.3c-0.5-0.3-1-0.6-1.5-0.9C662.2,556.7,663.4,555.6,664.8,555.3z"
	/>
<path class="st6" d="M671.3,561.2c-0.2,0-0.3,0.1-0.5,0.1c-9.6,1.5-3.2-3.9-3.2-3.9s0.4-0.4,1-1.1
	C670.5,557.9,671.2,559.6,671.3,561.2z"/>
<path class="st5" d="M655.7,570.8c0,0,5.4-20,12.9-13.8s-3.1,15.6-3.1,15.6L655.7,570.8z"/>
<ellipse class="st6" cx="658.4" cy="548.9" rx="0.6" ry="0.6"/>
<ellipse class="st6" cx="658.4" cy="551.8" rx="0.6" ry="0.6"/>
<ellipse class="st6" cx="675.8" cy="549.4" rx="0.6" ry="0.6"/>
<ellipse class="st6" cx="661.8" cy="564.4" rx="0.6" ry="0.6"/>
<ellipse class="st6" cx="674.6" cy="554.3" rx="0.6" ry="0.6"/>
<ellipse class="st6" cx="668.4" cy="560.8" rx="0.6" ry="0.6"/>
<ellipse class="st6" cx="660.5" cy="550.1" rx="0.6" ry="0.6"/>
<ellipse class="st6" cx="674.2" cy="551.3" rx="0.6" ry="0.6"/>
<ellipse class="st6" cx="672.1" cy="556.2" rx="0.6" ry="0.6"/>
<ellipse class="st6" cx="665.8" cy="563.9" rx="0.6" ry="0.6"/>
<ellipse class="st6" cx="664.5" cy="560.9" rx="0.6" ry="0.6"/>
<ellipse class="st6" cx="661.4" cy="553.9" rx="0.6" ry="0.6"/>
<rect x="654" y="586.1" class="st6" width="18.3" height="1.8"/>
<rect x="651.1" y="569.8" class="st4" width="23.9" height="17.5"/>
<ellipse class="st6" cx="666.6" cy="566.8" rx="0.6" ry="0.6"/>
<ellipse class="st6" cx="663" cy="567.5" rx="0.6" ry="0.6"/>
</svg>
